<?xml version="1.0" standalone="no"?>
<!DOCTYPE svg PUBLIC "-//W3C//DTD SVG 20010904//EN"
 "http://www.w3.org/TR/2001/REC-SVG-20010904/DTD/svg10.dtd">
<svg version="1.0" xmlns="http://www.w3.org/2000/svg"
 width="1024.000000pt" height="1024.000000pt" viewBox="0 0 1024.000000 1024.000000"
 preserveAspectRatio="xMidYMid meet">
<metadata>
Created by potrace 1.14, written by Peter Selinger 2001-2017
</metadata>
<g transform="translate(0.000000,1024.000000) scale(0.100000,-0.100000)"
fill="#000000" stroke="none">
<path d="M7607 9634 c-1 -1 -45 -4 -97 -8 -141 -9 -194 -15 -315 -37 -143 -27
-318 -75 -410 -114 -174 -74 -242 -106 -329 -155 -118 -67 -224 -135 -259
-165 -7 -6 -43 -35 -82 -64 -272 -208 -513 -501 -678 -826 -45 -88 -137 -303
-137 -319 0 -2 205 -3 455 -3 l456 0 56 81 c134 191 268 330 428 442 50 34 95
67 100 71 25 20 65 43 65 37 0 -4 8 0 18 8 9 9 28 19 42 23 14 4 27 11 30 14
3 4 25 15 50 25 25 10 64 27 87 37 22 10 75 27 117 38 42 11 80 22 84 25 4 2
24 7 45 10 20 3 52 8 70 11 98 16 180 21 294 20 154 -3 229 -10 348 -36 50
-11 99 -22 109 -24 90 -20 305 -115 409 -182 287 -183 519 -443 652 -728 62
-131 113 -296 130 -420 2 -11 7 -45 11 -75 10 -69 11 -378 1 -445 -4 -27 -10
-66 -13 -85 -2 -19 -12 -64 -20 -99 -9 -36 -17 -72 -19 -80 -8 -36 -58 -167
-91 -239 -182 -393 -568 -742 -969 -877 -99 -33 -220 -63 -283 -70 -26 -3 -78
-9 -116 -13 -93 -11 -298 -7 -388 8 -132 21 -259 56 -391 109 l-78 31 -319
-319 c-316 -316 -319 -319 -292 -330 15 -5 38 -17 52 -25 47 -28 125 -71 130
-71 3 -1 41 -18 84 -38 43 -20 83 -37 88 -37 5 0 25 -9 46 -19 20 -10 39 -19
42 -18 3 0 41 -12 85 -26 83 -27 218 -63 270 -72 17 -2 55 -9 85 -14 184 -32
366 -41 590 -28 63 4 124 8 135 11 11 2 47 7 80 11 33 3 102 15 154 26 51 10
104 21 117 23 42 8 298 97 321 112 12 8 28 14 34 14 14 0 267 126 289 144 8 7
47 32 85 56 39 24 84 55 101 69 17 14 41 33 53 41 13 8 33 24 45 35 12 11 37
31 54 45 91 75 275 267 373 390 87 109 200 288 267 422 35 70 65 133 66 140 1
7 12 36 25 63 12 28 31 80 41 117 10 37 21 72 25 78 8 12 9 19 40 163 13 65
27 137 30 160 3 23 8 58 10 77 31 224 21 613 -20 810 -3 14 -7 36 -10 50 -27
142 -77 316 -121 415 -10 22 -18 42 -19 45 -13 44 -123 262 -162 321 -18 28
-33 53 -33 56 0 18 -181 251 -270 348 -96 104 -214 216 -290 275 -25 19 -47
37 -50 40 -71 75 -436 283 -595 340 -16 6 -39 15 -50 20 -21 9 -210 68 -242
75 -154 33 -225 46 -276 51 -34 3 -65 8 -68 10 -10 6 -375 24 -382 18z"/>
<path d="M391 7364 c-90 -19 -145 -47 -200 -103 -57 -58 -93 -124 -115 -212
-32 -128 -17 -231 50 -335 19 -31 634 -654 1533 -1553 826 -827 1501 -1510
1502 -1519 0 -10 1 -506 2 -1104 l2 -1086 -520 -1 c-286 -1 -538 -3 -560 -6
-161 -18 -293 -83 -410 -201 -127 -128 -194 -279 -201 -453 -2 -57 1 -102 8
-115 16 -29 47 -55 77 -63 14 -4 997 -7 2183 -8 l2157 0 28 21 c43 32 57 70
55 148 -5 188 -94 381 -231 501 -19 16 -40 35 -47 42 -23 24 -170 92 -229 108
-97 25 -145 27 -677 27 l-508 0 0 1101 0 1102 1499 1500 c824 825 1515 1523
1534 1552 66 95 87 221 57 337 -25 96 -56 152 -120 217 -58 60 -127 93 -224
109 -26 4 -1518 7 -3315 7 -2671 0 -3278 -2 -3330 -13z"/>
</g>
</svg>
